<svg width="235" height="228" viewBox="0 0 235 228" fill="none" xmlns="http://www.w3.org/2000/svg">
<g clip-path="url(#clip0_649_403)">
<path d="M221.063 173.593H44.4214C41.1443 173.59 38.4887 171.196 38.4849 168.242V38.5858C38.4887 35.6317 41.1443 33.2378 44.4214 33.2344H221.063C224.341 33.2378 226.996 35.6317 227 38.5858V168.242C226.996 171.196 224.341 173.59 221.063 173.593Z" fill="#E6E6E6"/>
<path d="M203.901 169.983H48.4268C45.1497 169.98 42.494 167.586 42.4902 164.632V42.1981C42.494 39.244 45.1497 36.8501 48.4268 36.8467H217.059C220.336 36.8501 222.992 39.244 222.996 42.1981V152.77C222.984 162.272 214.442 169.972 203.901 169.983Z" fill="white"/>
<path d="M161.177 64.5308H90.18C89.3344 64.5308 88.6489 63.9129 88.6489 63.1507C88.6489 62.3884 89.3344 61.7705 90.18 61.7705H161.177C162.022 61.7705 162.708 62.3884 162.708 63.1507C162.708 63.9129 162.022 64.5308 161.177 64.5308Z" fill="#6C63FF"/>
<path d="M197.116 79.2564H90.18C89.3344 79.2564 88.6489 78.6385 88.6489 77.8762C88.6489 77.114 89.3344 76.4961 90.18 76.4961H197.116C197.962 76.4961 198.647 77.114 198.647 77.8762C198.647 78.6385 197.962 79.2564 197.116 79.2564Z" fill="#E6E6E6"/>
<path d="M197.116 93.981H90.18C89.3344 93.981 88.6489 93.3631 88.6489 92.6008C88.6489 91.8386 89.3344 91.2207 90.18 91.2207H197.116C197.962 91.2207 198.647 91.8386 198.647 92.6008C198.647 93.3631 197.962 93.981 197.116 93.981Z" fill="#E6E6E6"/>
<path d="M197.116 108.707H90.18C89.3344 108.707 88.6489 108.089 88.6489 107.326C88.6489 106.564 89.3344 105.946 90.18 105.946H197.116C197.962 105.946 198.647 106.564 198.647 107.326C198.647 108.089 197.962 108.707 197.116 108.707Z" fill="#E6E6E6"/>
<path d="M197.116 123.432H90.18C89.3344 123.432 88.6489 122.814 88.6489 122.052C88.6489 121.29 89.3344 120.672 90.18 120.672H197.116C197.962 120.672 198.647 121.29 198.647 122.052C198.647 122.814 197.962 123.432 197.116 123.432Z" fill="#E6E6E6"/>
<path d="M192.307 146.898C188.026 146.898 184.555 143.769 184.555 139.909C184.555 136.05 188.026 132.921 192.307 132.921C196.589 132.921 200.06 136.05 200.06 139.909C200.06 143.769 196.589 146.898 192.307 146.898Z" fill="#6C63FF"/>
<path d="M196.669 139.577L194.471 136.686C194.268 136.417 193.863 136.348 193.565 136.531C193.268 136.713 193.191 137.079 193.394 137.347L193.396 137.35L194.817 139.22H189.248C188.826 139.219 188.483 139.526 188.481 139.907C188.48 140.288 188.822 140.597 189.244 140.599H194.887L193.396 142.561C193.193 142.829 193.271 143.195 193.569 143.377C193.865 143.558 194.268 143.49 194.471 143.225L196.669 140.333C196.814 140.098 196.814 139.812 196.669 139.577Z" fill="white"/>
<path d="M234.229 14.1142H31.2573C30.822 14.1058 30.4767 13.7809 30.486 13.3886C30.495 13.008 30.8351 12.7015 31.2573 12.6934H234.229C234.664 12.7017 235.009 13.0266 235 13.4189C234.991 13.7995 234.651 14.106 234.229 14.1142Z" fill="#CACACA"/>
<path d="M56.6582 154.158C57.8318 153.273 57.9872 151.698 57.0053 150.64C56.9006 150.527 56.7851 150.423 56.66 150.329L54.9792 137.236L49.6423 138.35L52.6082 150.761C51.7001 151.88 51.9708 153.451 53.2128 154.27C54.2519 154.955 55.6762 154.909 56.6582 154.158Z" fill="#FFB6B6"/>
<path d="M56.1066 139.372L49.928 142.847C49.928 142.847 49.5519 144.883 49.1271 139.765C49.0827 139.231 49.4962 138.3 49.4507 137.752C49.3995 137.133 47.4339 136.852 47.3822 136.226C47.3453 135.781 47.9136 135.384 47.8769 134.94C47.8213 134.267 47.7661 133.598 47.7118 132.939C47.6665 132.388 46.9896 132.039 46.946 131.507C46.9019 130.971 47.4912 130.253 47.4497 129.745C47.1383 125.935 48.2152 116.35 48.2152 116.155C48.132 115.666 47.9054 115.205 47.5587 114.821L47.8885 113.932L47.6704 112.264C47.3838 110.072 47.895 107.855 49.1271 105.948L50.6962 105.021L57.9365 115.999C54.8897 125.499 52.9008 129.23 56.1066 139.372Z" fill="#6C63FF"/>
<path d="M51.2854 221.223H55.023L56.8019 208.228H51.2854V221.223Z" fill="#FFB6B6"/>
<path d="M50.0657 218.916L56.0369 218.595V220.901L61.714 224.435C62.4403 224.887 62.6225 225.784 62.1211 226.439C61.8227 226.829 61.3311 227.061 60.8059 227.061H53.6969L52.4716 224.78L51.9931 227.061H49.3127L50.0657 218.916Z" fill="#2F2E41"/>
<path d="M72.2803 221.223H76.0178L77.7963 208.228H72.2803V221.223Z" fill="#FFB6B6"/>
<path d="M71.0603 218.916L77.0316 218.595V220.901L82.7086 224.435C83.4349 224.887 83.6171 225.784 83.1157 226.439C82.8173 226.829 82.3257 227.061 81.8005 227.061H74.6915L73.4662 224.78L72.9878 227.061H70.3074L71.0603 218.916Z" fill="#2F2E41"/>
<path d="M49.699 210.016H49.7136L50.4324 179.068C49.4876 177.425 49.5178 175.465 50.5128 173.846L50.6157 173.678L50.3489 172.563C50.0062 171.131 50.1635 169.638 50.7991 168.289L51.4697 148.579C49.074 134.583 60.4913 125.455 60.4913 125.455H77.5946L81.2664 136.827C83.6939 158.146 83.2534 188.739 79.4014 208.866L79.5064 208.914C79.9201 209.122 80.0797 209.586 79.8688 209.968C79.6908 210.433 79.24 210.715 78.8618 210.597L69.8293 210.314C69.4156 210.106 69.2561 209.641 69.467 209.259C69.645 208.794 70.0958 208.513 70.474 208.63L71.0881 208.91L70.4544 207.747C69.6772 206.321 69.8275 204.626 70.8461 203.329L70.7351 200.769C69.7748 199.756 69.4556 198.37 69.8888 197.095L70.4981 195.303L69.7783 178.702L69.9237 174.978L69.6243 170.752L68.2397 151.748L62.9992 175.118L57.6461 210.252C57.9081 210.465 58.0231 210.788 57.9473 211.099C57.8336 211.516 57.4146 211.806 56.9386 211.797H49.6729C49.1263 211.797 48.6836 211.397 48.6841 210.904C48.6842 210.824 48.6962 210.745 48.7197 210.668C48.8458 210.276 49.247 210.01 49.699 210.016Z" fill="#2F2E41"/>
<path d="M91.2621 149.071C92.2278 148.001 92.0484 146.428 90.8614 145.558C90.7348 145.465 90.5994 145.382 90.4567 145.311L86.0468 132.745L81.042 134.753L86.5698 146.429C85.9142 147.684 86.5111 149.18 87.903 149.771C89.0675 150.265 90.4562 149.976 91.2621 149.071Z" fill="#FFB6B6"/>
<path d="M73.1159 109.123C73.1159 109.123 78.1454 125.168 77.9177 126.788C77.4479 130.131 54.3356 140.405 52.6167 135.833L52.8322 134.33C51.9639 132.764 57.2617 126.551 57.5189 125.738C57.8456 124.699 56.3661 121.287 56.3661 121.287C56.3661 121.287 57.3888 118.173 57.2254 116.244C57.059 114.316 56.5658 114.613 54.7565 113.424C52.9472 112.238 49.9851 106.75 49.9851 106.75C49.9851 106.75 51.3013 101.41 51.3013 100.371C51.3013 99.3318 56.708 97.5617 57.3646 96.9699C57.6504 96.6261 57.891 96.2536 58.0816 95.8598C58.2148 95.6198 58.1301 95.0634 58.2723 94.788C58.363 94.608 58.6807 94.7198 58.7745 94.5343C58.8653 94.3543 58.7866 94.1471 58.8774 93.9698C58.9954 93.7352 59.2798 93.5307 59.3917 93.3097C59.9061 92.2952 60.3448 91.4688 60.481 91.4688C60.8077 91.4688 71.3429 92.8052 71.3429 92.8052C71.9163 93.6046 72.5772 94.3502 73.3156 95.0307C74.4684 96.0671 79.863 98.59 79.863 98.59L73.1159 109.123Z" fill="#6C63FF"/>
<path d="M87.3417 136.115C86.5187 136.857 82.4464 140.263 82.28 139.371C82.1166 138.482 82.0277 138.376 81.3681 138.082C80.7085 137.784 80.7085 137.637 80.5451 136.598C80.3817 135.559 78.8992 134.52 79.0656 134.075C79.229 133.63 79.0765 134.196 79.0765 133.749C79.0765 133.304 78.5833 131.673 77.9237 131.376C77.2671 131.079 76.2778 130.784 76.774 130.042C77.2671 129.3 72.1296 107.045 72.1296 107.045L76.7377 98.8871L79.8631 98.5898C79.8631 98.5898 80.8128 99.0797 81.1104 103.496C81.1254 103.72 81.396 104.13 81.4075 104.374C81.4171 104.577 81.1682 104.611 81.1751 104.829C81.1765 104.875 81.1779 104.922 81.1793 104.969C81.1855 105.186 81.834 105.345 81.8438 105.554C81.8612 105.927 82.1159 108.308 82.1434 108.658C82.1743 109.053 82.2109 109.433 82.253 109.798C82.7078 113.778 82.8706 114.114 83.1524 115.385C83.5886 117.351 85.397 128.834 85.397 128.834C85.397 128.834 86.7131 129.128 86.7131 130.168C86.7131 131.207 88.1647 133.295 87.5081 134.482C86.8485 135.671 88.1647 135.374 87.3417 136.115Z" fill="#6C63FF"/>
<path d="M64.9423 91.1642C69.2532 91.1642 72.7479 88.014 72.7479 84.128C72.7479 80.242 69.2532 77.0918 64.9423 77.0918C60.6314 77.0918 57.1367 80.242 57.1367 84.128C57.1367 88.014 60.6314 91.1642 64.9423 91.1642Z" fill="#FFB8B8"/>
<path d="M48.122 98.9147C46.4702 98.387 44.8184 97.8584 43.1667 97.3288C43.4514 96.8981 43.8139 96.5135 44.2394 96.1907C45.8121 95.0069 47.9828 94.793 49.9795 94.3936C51.9793 93.9943 54.1501 93.1756 54.881 91.4527C55.6405 89.6614 54.5393 87.7274 53.9001 85.9019C52.956 83.3413 53.0706 80.5594 54.2229 78.0691C55.4159 75.576 57.8293 73.7264 60.7509 73.0659C63.6431 72.4869 66.9118 73.431 68.6902 75.5646C71.0613 74.9234 73.5904 75.9788 74.5822 78.0234C75.0397 78.9627 74.9691 80.0429 74.3923 80.9272C73.7753 81.7687 72.4557 82.1994 71.4621 81.7316L72.0381 80.4138C70.2565 80.9586 69.0984 83.8624 69.3389 85.5453C69.5762 87.2254 70.6647 88.6973 71.7691 90.0693C72.8735 91.4413 74.0506 92.8276 74.5252 94.4678C75.2087 96.8267 74.2847 99.4053 72.576 101.297C70.8673 103.188 68.4592 104.471 65.9657 105.415C64.0992 106.123 62.1594 106.662 60.175 107.024C60.5294 106.402 60.8806 105.781 61.235 105.159L57.0296 107.452C56.2164 107.523 55.3968 107.566 54.5773 107.58C52.1914 107.618 49.758 107.392 47.5746 106.534C45.3881 105.672 43.4673 104.112 42.6762 102.084C42.4226 101.428 42.3025 100.736 42.3218 100.041C44.2552 99.6649 46.1886 99.2894 48.122 98.9147Z" fill="#2F2E41"/>
<path d="M123.552 227.597H109.076L109.014 227.495C108.828 227.192 108.65 226.872 108.483 226.542C106.991 223.664 106.361 220.373 105.805 217.469L105.386 215.28C105.246 214.545 105.793 213.846 106.609 213.719C107.008 213.657 107.419 213.743 107.746 213.958C109.946 215.401 112.147 216.843 114.349 218.283C115.183 218.83 116.135 219.463 117.047 220.147C117.135 219.762 117.227 219.375 117.319 218.995C117.495 218.265 118.294 217.802 119.104 217.96C119.5 218.038 119.844 218.257 120.059 218.568L121.752 221.021C122.988 222.812 124.078 224.577 123.856 226.481C123.857 226.504 123.855 226.528 123.85 226.55C123.806 226.863 123.723 227.17 123.604 227.467L123.552 227.597Z" fill="#F0F0F0"/>
<path d="M138.083 227.879L0.516704 228C0.229849 227.998 -0.00148471 227.788 7.17553e-06 227.529C0.00149906 227.272 0.231964 227.065 0.516704 227.063L138.083 226.942C138.37 226.944 138.601 227.154 138.599 227.413C138.598 227.67 138.368 227.877 138.083 227.879Z" fill="#CACACA"/>
<path d="M39.21 6.79894C41.2473 6.79894 42.8989 5.27694 42.8989 3.39947C42.8989 1.52199 41.2473 0 39.21 0C37.1726 0 35.521 1.52199 35.521 3.39947C35.521 5.27694 37.1726 6.79894 39.21 6.79894Z" fill="#3F3D56"/>
<path d="M51.9539 6.79894C53.9912 6.79894 55.6428 5.27694 55.6428 3.39947C55.6428 1.52199 53.9912 0 51.9539 0C49.9165 0 48.2649 1.52199 48.2649 3.39947C48.2649 5.27694 49.9165 6.79894 51.9539 6.79894Z" fill="#3F3D56"/>
<path d="M64.6975 6.79894C66.7349 6.79894 68.3865 5.27694 68.3865 3.39947C68.3865 1.52199 66.7349 0 64.6975 0C62.6601 0 61.0085 1.52199 61.0085 3.39947C61.0085 5.27694 62.6601 6.79894 64.6975 6.79894Z" fill="#3F3D56"/>
<path d="M79.2286 6.08634C79.1153 6.08634 79.0022 6.04679 78.9168 5.96807L76.4277 3.67438C76.2617 3.52154 76.2617 3.27731 76.4277 3.12447L78.9168 0.830972C79.0857 0.675833 79.3622 0.673336 79.5336 0.82483C79.7059 0.976706 79.7089 1.22574 79.5404 1.38088L77.3497 3.39942L79.5404 5.41817C79.7089 5.57331 79.7059 5.82234 79.5336 5.97421C79.4488 6.04909 79.3387 6.08634 79.2286 6.08634Z" fill="#3F3D56"/>
<path d="M83.4113 6.08663C83.3012 6.08663 83.1911 6.04938 83.1063 5.9745C82.934 5.82262 82.931 5.57379 83.0995 5.41845L85.29 3.39971L83.0995 1.38116C82.931 1.22602 82.934 0.976994 83.1063 0.825118C83.2782 0.67305 83.5547 0.675932 83.7232 0.83126L86.2121 3.12476C86.378 3.2776 86.378 3.52183 86.2121 3.67466L83.7232 5.96836C83.6378 6.04708 83.5247 6.08663 83.4113 6.08663Z" fill="#3F3D56"/>
<path d="M213.628 0.393555H209C208.472 0.393555 208.044 0.778909 208.044 1.25472V5.43078C208.044 5.9066 208.472 6.29195 209 6.29195H213.628C214.156 6.29195 214.588 5.9066 214.588 5.43078V1.25472C214.588 0.778909 214.156 0.393555 213.628 0.393555Z" fill="#3F3D56"/>
<path d="M202.286 0.393555H197.658C197.13 0.393555 196.703 0.778909 196.703 1.25472V5.43078C196.703 5.9066 197.13 6.29195 197.658 6.29195H202.286C202.814 6.29195 203.246 5.9066 203.246 5.43078V1.25472C203.246 0.778909 202.814 0.393555 202.286 0.393555Z" fill="#3F3D56"/>
<path d="M224.316 0.589844H219.687C219.159 0.589844 218.732 0.975198 218.732 1.45101V5.62707C218.732 6.10288 219.159 6.48824 219.687 6.48824H224.316C224.843 6.48824 225.275 6.10288 225.275 5.62707V1.45101C225.275 0.975198 224.843 0.589844 224.316 0.589844Z" fill="#3F3D56"/>
<path d="M154.554 2.17871H117.558C116.912 2.17871 116.393 2.65059 116.393 3.22864C116.393 3.8067 116.912 4.27855 117.558 4.27855H154.554C155.195 4.27855 155.719 3.80667 155.719 3.22864C155.719 2.65061 155.195 2.17871 154.554 2.17871Z" fill="#3F3D56"/>
</g>
<defs>
<clipPath id="clip0_649_403">
<rect width="235" height="228" fill="white"/>
</clipPath>
</defs>
</svg>
