<svg width="267" height="169" viewBox="0 0 267 169" fill="none" xmlns="http://www.w3.org/2000/svg">
<g clip-path="url(#clip0_645_296)">
<path d="M170.146 126.896V167.394H53.262C39.9446 167.394 29.1095 158.31 29.1095 147.145C29.1095 135.979 39.9446 126.896 53.262 126.896H170.146Z" fill="#F2F2F2"/>
<path d="M173.017 167.082C173.017 167.495 172.827 167.891 172.491 168.183C172.155 168.475 171.698 168.639 171.222 168.64H51.1801C44.6603 168.64 38.4077 166.391 33.7975 162.389C29.1874 158.388 26.5974 152.96 26.5974 147.3C26.5974 141.641 29.1874 136.213 33.7975 132.211C38.4077 128.209 44.6603 125.961 51.1801 125.961H171.222C171.698 125.961 172.155 126.125 172.491 126.417C172.828 126.709 173.017 127.105 173.017 127.519C173.017 127.932 172.828 128.328 172.491 128.62C172.155 128.912 171.698 129.076 171.222 129.076H51.1801C45.6121 129.076 40.2722 130.996 36.3351 134.414C32.398 137.832 30.1861 142.467 30.1861 147.3C30.1861 152.134 32.398 156.769 36.3351 160.187C40.2722 163.604 45.6121 165.524 51.1801 165.524H171.222C171.698 165.525 172.155 165.689 172.491 165.981C172.827 166.273 173.017 166.669 173.017 167.082Z" fill="#6C63FF"/>
<path d="M170.146 136.241H44.541C44.4458 136.241 44.3545 136.208 44.2872 136.15C44.2199 136.092 44.1821 136.012 44.1821 135.93C44.1821 135.847 44.2199 135.768 44.2872 135.709C44.3545 135.651 44.4458 135.618 44.541 135.618H170.146C170.241 135.618 170.332 135.651 170.4 135.709C170.467 135.768 170.505 135.847 170.505 135.93C170.505 136.012 170.467 136.092 170.4 136.15C170.332 136.208 170.241 136.241 170.146 136.241Z" fill="#CCCCCC"/>
<path d="M170.146 143.718H44.541C44.4458 143.718 44.3545 143.685 44.2872 143.627C44.2199 143.568 44.1821 143.489 44.1821 143.406C44.1821 143.324 44.2199 143.244 44.2872 143.186C44.3545 143.128 44.4458 143.095 44.541 143.095H170.146C170.241 143.095 170.332 143.128 170.4 143.186C170.467 143.244 170.505 143.324 170.505 143.406C170.505 143.489 170.467 143.568 170.4 143.627C170.332 143.685 170.241 143.718 170.146 143.718Z" fill="#CCCCCC"/>
<path d="M170.146 151.194H44.541C44.4458 151.194 44.3545 151.162 44.2872 151.103C44.2199 151.045 44.1821 150.965 44.1821 150.883C44.1821 150.8 44.2199 150.721 44.2872 150.663C44.3545 150.604 44.4458 150.571 44.541 150.571H170.146C170.241 150.571 170.332 150.604 170.4 150.663C170.467 150.721 170.505 150.8 170.505 150.883C170.505 150.965 170.467 151.045 170.4 151.103C170.332 151.162 170.241 151.194 170.146 151.194Z" fill="#CCCCCC"/>
<path d="M170.146 158.671H44.541C44.4458 158.671 44.3545 158.638 44.2872 158.58C44.2199 158.521 44.1821 158.442 44.1821 158.359C44.1821 158.277 44.2199 158.198 44.2872 158.139C44.3545 158.081 44.4458 158.048 44.541 158.048H170.146C170.241 158.048 170.332 158.081 170.4 158.139C170.467 158.198 170.505 158.277 170.505 158.359C170.505 158.442 170.467 158.521 170.4 158.58C170.332 158.638 170.241 158.671 170.146 158.671Z" fill="#CCCCCC"/>
<path d="M260.48 134.519L231.209 166.054L140.194 102.394C129.824 95.1411 127.952 82.1663 136.022 73.4723C144.092 64.7783 159.095 63.6061 169.465 70.8593L260.48 134.519Z" fill="#F2F2F2"/>
<path d="M233.669 167.375C233.371 167.696 232.937 167.902 232.464 167.946C231.991 167.99 231.517 167.869 231.146 167.61L137.672 102.23C132.595 98.6794 129.351 93.5233 128.654 87.8962C127.956 82.2691 129.863 76.6321 133.953 72.2251C138.044 67.8181 143.984 65.0022 150.466 64.3969C156.949 63.7916 163.442 65.4464 168.519 68.9973L261.994 134.377C262.177 134.506 262.33 134.664 262.443 134.844C262.556 135.023 262.627 135.22 262.653 135.424C262.678 135.627 262.657 135.833 262.591 136.029C262.524 136.226 262.414 136.409 262.266 136.568C262.118 136.727 261.935 136.86 261.729 136.958C261.522 137.056 261.294 137.118 261.06 137.14C260.826 137.161 260.589 137.143 260.363 137.085C260.136 137.027 259.926 136.932 259.742 136.803L166.267 71.4231C164.121 69.9204 161.654 68.7996 159.008 68.1246C156.363 67.4497 153.59 67.2338 150.848 67.4894C148.106 67.7449 145.449 68.4669 143.028 69.6141C140.608 70.7612 138.472 72.3111 136.741 74.1751C135.011 76.0392 133.721 78.1808 132.945 80.4778C132.168 82.7748 131.92 85.182 132.216 87.5621C132.511 89.9421 133.344 92.2483 134.667 94.3489C135.989 96.4495 137.775 98.3034 139.923 99.8046L233.398 165.185C233.768 165.444 234.005 165.82 234.056 166.231C234.107 166.642 233.968 167.053 233.669 167.375Z" fill="#CCCCCC"/>
<path d="M253.725 141.796L155.919 73.3861C155.882 73.3605 155.852 73.3288 155.829 73.2929C155.807 73.257 155.792 73.2175 155.787 73.1769C155.782 73.1362 155.787 73.0951 155.8 73.0558C155.813 73.0166 155.835 72.9799 155.865 72.9481C155.894 72.9162 155.931 72.8898 155.972 72.8701C156.013 72.8505 156.059 72.8382 156.106 72.8338C156.153 72.8294 156.2 72.8331 156.245 72.8446C156.29 72.8562 156.333 72.8753 156.369 72.901L254.175 141.311C254.212 141.336 254.243 141.368 254.265 141.404C254.288 141.44 254.302 141.479 254.307 141.52C254.312 141.561 254.308 141.602 254.295 141.641C254.282 141.68 254.26 141.717 254.23 141.749C254.2 141.781 254.164 141.807 254.122 141.827C254.081 141.847 254.036 141.859 253.989 141.863C253.942 141.868 253.894 141.864 253.849 141.852C253.804 141.841 253.762 141.821 253.725 141.796Z" fill="#CCCCCC"/>
<path d="M248.321 147.618L150.515 79.2081C150.441 79.1563 150.394 79.081 150.384 78.9989C150.374 78.9169 150.401 78.8346 150.461 78.7704C150.521 78.7061 150.607 78.665 150.702 78.6561C150.797 78.6472 150.891 78.6713 150.965 78.723L248.771 147.133C248.808 147.158 248.839 147.19 248.861 147.226C248.884 147.262 248.898 147.301 248.903 147.342C248.908 147.383 248.904 147.424 248.891 147.463C248.878 147.502 248.856 147.539 248.826 147.571C248.796 147.603 248.76 147.629 248.719 147.649C248.677 147.669 248.632 147.681 248.585 147.685C248.538 147.69 248.49 147.686 248.445 147.674C248.4 147.663 248.358 147.644 248.321 147.618Z" fill="#CCCCCC"/>
<path d="M242.917 153.44L145.111 85.0307C145.037 84.9788 144.99 84.9036 144.979 84.8214C144.969 84.7393 144.997 84.657 145.057 84.5926C145.117 84.5283 145.203 84.4872 145.298 84.4784C145.393 84.4695 145.487 84.4937 145.561 84.5455L243.367 152.955C243.404 152.981 243.435 153.013 243.457 153.048C243.48 153.084 243.494 153.124 243.499 153.164C243.504 153.205 243.5 153.246 243.487 153.285C243.473 153.325 243.451 153.361 243.422 153.393C243.392 153.425 243.356 153.452 243.314 153.471C243.273 153.491 243.228 153.503 243.181 153.507C243.134 153.512 243.086 153.508 243.041 153.497C242.996 153.485 242.954 153.466 242.917 153.44Z" fill="#CCCCCC"/>
<path d="M237.513 159.262L139.707 90.8519C139.671 90.8263 139.64 90.7946 139.617 90.7587C139.595 90.7228 139.581 90.6834 139.576 90.6427C139.571 90.602 139.575 90.5609 139.588 90.5216C139.601 90.4824 139.623 90.4458 139.653 90.4139C139.682 90.3821 139.719 90.3556 139.76 90.336C139.802 90.3164 139.847 90.304 139.894 90.2996C139.941 90.2953 139.988 90.2989 140.033 90.3105C140.079 90.322 140.121 90.3411 140.158 90.3668L237.964 158.776C238 158.802 238.031 158.834 238.054 158.87C238.076 158.906 238.09 158.945 238.096 158.986C238.101 159.026 238.096 159.068 238.083 159.107C238.07 159.146 238.048 159.183 238.018 159.215C237.989 159.247 237.952 159.273 237.911 159.293C237.869 159.312 237.824 159.325 237.777 159.329C237.73 159.333 237.683 159.33 237.637 159.318C237.592 159.306 237.55 159.287 237.513 159.262Z" fill="#CCCCCC"/>
<path d="M266.641 168.951H0.358871C0.263692 168.951 0.172412 168.918 0.105111 168.86C0.0378092 168.802 0 168.722 0 168.64C0 168.557 0.0378092 168.478 0.105111 168.419C0.172412 168.361 0.263692 168.328 0.358871 168.328H266.641C266.736 168.328 266.828 168.361 266.895 168.419C266.962 168.478 267 168.557 267 168.64C267 168.722 266.962 168.802 266.895 168.86C266.828 168.918 266.736 168.951 266.641 168.951Z" fill="#CCCCCC"/>
<path d="M121.327 122.639L117.225 122.638L115.274 108.901L121.329 108.902L121.327 122.639Z" fill="#FFB8B8"/>
<path d="M114.294 121.621H122.206V125.946H109.312C109.312 125.378 109.441 124.815 109.691 124.291C109.942 123.766 110.309 123.289 110.771 122.888C111.234 122.486 111.783 122.168 112.388 121.95C112.992 121.733 113.64 121.621 114.294 121.621Z" fill="#2F2E41"/>
<path d="M79.4132 122.639L75.3106 122.638L73.3594 108.901L79.4146 108.902L79.4132 122.639Z" fill="#FFB8B8"/>
<path d="M72.3799 121.621H80.2922V125.946H67.3981C67.3981 125.378 67.5269 124.815 67.7773 124.291C68.0277 123.766 68.3946 123.289 68.8572 122.888C69.3198 122.486 69.869 122.168 70.4734 121.95C71.0779 121.733 71.7257 121.621 72.3799 121.621Z" fill="#2F2E41"/>
<path d="M93.1166 20.7429V19.1853C93.1166 16.5208 94.3359 13.9654 96.5064 12.0813C98.6769 10.1972 101.621 9.13867 104.69 9.13867C107.76 9.13867 110.703 10.1972 112.874 12.0813C115.044 13.9654 116.264 16.5208 116.264 19.1853V20.7429C116.264 22.6639 115.385 24.5061 113.82 25.8644C112.255 27.2227 110.133 27.9858 107.92 27.9858H101.46C100.365 27.9858 99.2796 27.7985 98.2673 27.4345C97.255 27.0705 96.3352 26.537 95.5604 25.8644C94.7856 25.1919 94.171 24.3934 93.7517 23.5147C93.3324 22.6359 93.1166 21.6941 93.1166 20.7429Z" fill="#2F2E41"/>
<path d="M104.69 28.5224C109.558 28.5224 113.504 25.0968 113.504 20.8711C113.504 16.6453 109.558 13.2197 104.69 13.2197C99.8221 13.2197 95.8759 16.6453 95.8759 20.8711C95.8759 25.0968 99.8221 28.5224 104.69 28.5224Z" fill="#FFB8B8"/>
<path d="M56.7464 47.1674C57.1041 46.8742 57.5315 46.6526 57.9985 46.5183C58.4655 46.384 58.9607 46.3402 59.4493 46.3901C59.9379 46.4399 60.408 46.5821 60.8264 46.8067C61.2449 47.0313 61.6015 47.3328 61.8712 47.6899L69.4271 46.4492L71.4155 50.2512L60.7168 51.8732C59.9955 52.2267 59.15 52.3383 58.3403 52.1868C57.5306 52.0353 56.8131 51.6312 56.3237 51.0511C55.8343 50.4711 55.607 49.7553 55.6849 49.0395C55.7628 48.3237 56.1405 47.6576 56.7464 47.1674Z" fill="#FFB8B8"/>
<path d="M97.9171 33.4702L85.5268 40.5556L64.6196 46.351C64.3425 46.4283 64.1047 46.5866 63.9469 46.7989C63.7891 47.0112 63.7209 47.2645 63.754 47.5155L64.2101 50.9257C64.2303 51.0766 64.2867 51.2222 64.3755 51.3531C64.4643 51.484 64.5837 51.5974 64.726 51.6859C64.8682 51.7744 65.0302 51.8362 65.2016 51.8672C65.3729 51.8982 65.5499 51.8978 65.721 51.866L85.3978 48.2047C86.3501 48.0286 87.2505 47.6844 88.0432 47.1937L101.963 38.5966C102.468 38.2833 102.87 37.8619 103.132 37.3734C103.393 36.885 103.505 36.3462 103.455 35.8093C103.404 35.2716 103.193 34.7548 102.842 34.3096C102.491 33.8644 102.013 33.5062 101.454 33.2702C100.895 33.0342 100.275 32.9285 99.655 32.9636C99.0348 32.9987 98.4359 33.1733 97.9171 33.4702Z" fill="#CCCCCC"/>
<path d="M117.298 118.741C116.983 118.741 116.675 118.661 116.411 118.512C116.148 118.362 115.94 118.149 115.813 117.899L97.0048 77.5567C96.9609 77.4692 96.8871 77.3955 96.7935 77.3454C96.6999 77.2954 96.5908 77.2714 96.4811 77.2768C96.3713 77.2822 96.266 77.3166 96.1795 77.3754C96.0929 77.4343 96.0292 77.5147 95.9968 77.606L80.6521 116.881C80.5874 117.064 80.4802 117.233 80.3372 117.378C80.1943 117.524 80.0185 117.643 79.8208 117.727C79.6231 117.811 79.4077 117.86 79.1876 117.869C78.9676 117.878 78.7477 117.849 78.5414 117.781L73.3958 116.106C73.1165 116.016 72.8714 115.861 72.6879 115.657C72.5044 115.453 72.3895 115.209 72.3561 114.952C70.0412 97.4472 90.2279 53.2616 90.4321 52.8174L90.4887 52.6943L108.891 56.2279L108.929 56.2641C116.271 63.2166 122.305 107.068 123.44 115.788C123.483 116.103 123.4 116.421 123.206 116.69C123.012 116.959 122.719 117.162 122.374 117.267L117.832 118.661C117.661 118.714 117.48 118.741 117.298 118.741Z" fill="#2F2E41"/>
<path d="M101.443 57.6498C96.9845 57.6498 92.0138 56.8781 90.4838 53.6932L90.4486 53.6201L90.4962 53.5522C91.7039 51.8322 93.3 48.8979 92.4421 48.3471C90.7521 47.2624 89.932 45.478 90.0048 43.0433C90.1629 37.7581 94.3114 33.0656 100.328 31.3667C102.007 30.9002 103.717 30.5182 105.447 30.2227C106.708 30.0018 108.01 30.0261 109.259 30.2938C110.508 30.5616 111.674 31.0663 112.672 31.7715C113.682 32.4813 114.499 33.3766 115.063 34.393C115.628 35.4095 115.926 36.5218 115.936 37.6501C115.999 43.2983 114.997 51.165 109.867 56.5658C109.626 56.8164 109.292 56.9854 108.922 57.0429C106.453 57.4304 103.951 57.6335 101.443 57.6498Z" fill="#CCCCCC"/>
<path d="M99.7845 57.4384C100.027 56.6828 100.603 56.0409 101.388 55.6522C102.173 55.2635 103.103 55.1593 103.976 55.3623C104.154 55.4056 104.328 55.4614 104.495 55.5294L110.232 50.9971L114.222 53.3305L106.018 59.6329C105.647 60.2127 105.064 60.6683 104.361 60.9272C103.658 61.1861 102.875 61.2335 102.137 61.0617C101.707 60.9596 101.305 60.7846 100.954 60.5467C100.603 60.3089 100.309 60.0129 100.09 59.676C99.8715 59.3391 99.7318 58.9678 99.6794 58.5838C99.6269 58.1997 99.6626 57.8104 99.7845 57.4384Z" fill="#FFB8B8"/>
<path d="M109.324 57.4965C108.951 57.4967 108.59 57.385 108.302 57.1803L106.04 55.5754C105.851 55.4416 105.7 55.2725 105.597 55.0808C105.495 54.889 105.443 54.6796 105.447 54.4682C105.451 54.2568 105.51 54.0489 105.619 53.86C105.729 53.6711 105.886 53.5062 106.079 53.3775L115.568 47.0599C115.681 46.9847 115.754 46.8739 115.773 46.7518C115.793 46.6296 115.755 46.5059 115.67 46.4074L109.813 39.6859C109.133 38.9076 108.791 37.9454 108.85 36.9696C108.908 35.9938 109.362 35.0674 110.132 34.3544C110.942 33.5945 112.052 33.127 113.241 33.0444C114.43 32.9618 115.612 33.2703 116.551 33.9087L116.588 33.9426L122.704 41.5445C123.365 41.9946 123.898 42.5714 124.26 43.2297C124.622 43.888 124.804 44.6101 124.791 45.3395C124.779 46.0689 124.572 46.786 124.188 47.4347C123.803 48.0833 123.251 48.646 122.575 49.0789L110.285 57.2217C110.007 57.4002 109.67 57.4965 109.324 57.4965Z" fill="#CCCCCC"/>
<path d="M96.8827 18.7186V14.9224L104.69 11.9629L112.135 14.9224V18.7186C112.135 18.8839 112.059 19.0423 111.924 19.1592C111.79 19.276 111.607 19.3417 111.417 19.3417H97.6004C97.4101 19.3417 97.2275 19.276 97.0929 19.1592C96.9583 19.0423 96.8827 18.8839 96.8827 18.7186Z" fill="#2F2E41"/>
<path d="M104.332 9.64255C103.184 6.45301 105.595 2.79766 109.159 1.53516C112.723 0.272656 116.987 1.15518 119.994 3.24102C123.002 5.32686 124.868 8.45106 125.856 11.6805C126.845 14.91 127.033 18.2776 127.215 21.6154C131.594 22.3137 134.573 26.8223 133.056 30.4559C131.539 34.0896 125.925 35.8948 122.047 33.9956C118.169 32.0964 117.046 26.9911 119.845 23.9852C121.169 22.5628 121.909 20.7977 121.947 18.9692C121.985 17.1407 121.319 15.3535 120.055 13.8906C118.791 12.4277 117 11.3727 114.967 10.8927C112.935 10.4128 110.775 10.5353 108.832 11.2409C106.674 12.0243 103.966 9.98873 104.332 9.64255Z" fill="#2F2E41"/>
<path d="M55.1277 32.4411C49.8848 32.4112 44.7075 31.4269 39.9302 29.5517C39.6458 29.4417 39.4044 29.2623 39.2355 29.0353C39.0665 28.8083 38.9772 28.5435 38.9785 28.2732V16.9282C38.979 16.5566 39.1493 16.2002 39.4521 15.9374C39.7548 15.6746 40.1653 15.5268 40.5934 15.5264H69.662C70.0902 15.5268 70.5006 15.6746 70.8034 15.9374C71.1061 16.2002 71.2764 16.5566 71.2769 16.9282V28.2733C71.2782 28.5435 71.1889 28.8083 71.02 29.0353C70.851 29.2623 70.6096 29.4417 70.3252 29.5518C65.5479 31.4269 60.3706 32.4112 55.1277 32.4411Z" fill="#6C63FF"/>
<path d="M55.1237 23.2496C54.9082 23.2498 54.6948 23.2125 54.4961 23.1401L31.4452 14.6979C31.1479 14.5891 30.895 14.4054 30.7191 14.1706C30.5432 13.9359 30.4524 13.6607 30.4583 13.3807C30.4642 13.1007 30.5666 12.8286 30.7523 12.5996C30.938 12.3706 31.1984 12.1951 31.5001 12.0958L54.5514 4.50466C54.9227 4.38183 55.3332 4.38259 55.7038 4.50679L78.4462 12.0979C78.7462 12.198 79.0049 12.3735 79.1893 12.602C79.3736 12.8305 79.4753 13.1015 79.4812 13.3804C79.4872 13.6594 79.3971 13.9335 79.2226 14.1677C79.048 14.4019 78.797 14.5857 78.5015 14.6953L55.7589 23.1373C55.558 23.2116 55.342 23.2498 55.1237 23.2496Z" fill="#6C63FF"/>
<path d="M41.6699 30.3232C42.8591 30.3232 43.8232 29.4864 43.8232 28.4541C43.8232 27.4218 42.8591 26.585 41.6699 26.585C40.4808 26.585 39.5167 27.4218 39.5167 28.4541C39.5167 29.4864 40.4808 30.3232 41.6699 30.3232Z" fill="#3F3D56"/>
<path opacity="0.2" d="M78.58 13.4978L55.8373 21.9398C55.66 22.0056 55.4692 22.0398 55.2764 22.0402C55.0836 22.0406 54.8926 22.0073 54.7149 21.9422L31.664 13.5003C31.3745 13.3968 31.133 13.2125 30.9776 12.9766C30.8759 13.1296 30.813 13.2996 30.7928 13.4753C30.7727 13.6511 30.7958 13.8285 30.8607 13.9959C30.9257 14.1633 31.0308 14.3168 31.1693 14.4462C31.3078 14.5756 31.4764 14.6779 31.664 14.7464L54.7149 23.1883C54.8926 23.2533 55.0836 23.2867 55.2764 23.2863C55.4692 23.2859 55.66 23.2517 55.8373 23.1859L78.58 14.7439C78.7666 14.6748 78.9342 14.5722 79.0717 14.4427C79.2092 14.3133 79.3136 14.16 79.3778 13.993C79.4421 13.8259 79.4648 13.649 79.4445 13.4738C79.4241 13.2986 79.3612 13.1291 79.2599 12.9766C79.1057 13.2106 78.8666 13.3939 78.58 13.4978Z" fill="black"/>
<path d="M41.8509 28.4473C41.9461 28.4473 42.0374 28.4144 42.1047 28.356C42.172 28.2976 42.2098 28.2184 42.2098 28.1357V17.7117L54.0458 13.9687C54.141 13.97 54.2328 13.9383 54.3011 13.8808C54.3694 13.8232 54.4086 13.7445 54.41 13.6619C54.4114 13.5792 54.375 13.4995 54.3087 13.4402C54.2424 13.3809 54.1517 13.3469 54.0565 13.3457L42.2205 17.0887C42.1253 17.0868 42.0306 17.1017 41.9421 17.1325C41.8537 17.1633 41.7734 17.2094 41.7061 17.2679C41.6381 17.3257 41.5841 17.3948 41.5473 17.471C41.5106 17.5472 41.4918 17.6291 41.4921 17.7117V28.1357C41.4921 28.2184 41.5299 28.2976 41.5972 28.356C41.6645 28.4144 41.7558 28.4473 41.8509 28.4473Z" fill="#3F3D56"/>
</g>
<defs>
<clipPath id="clip0_645_296">
<rect width="267" height="168" fill="white" transform="translate(0 0.951172)"/>
</clipPath>
</defs>
</svg>
